<svg width="1920" height="540" viewBox="0 0 1920 540" fill="none" xmlns="http://www.w3.org/2000/svg">
<path d="M0.556479 0.582379H1920V540H0.556479V0.582379Z" fill="white"/>
<path d="M300.157 472.073L245.9 220.343L191.009 472.073H97.091L0 126.499H97.091L151.03 374.425L200.845 126.499H292.542L345.212 375.376L399.152 126.499H493.387L393.123 472.073H300.157Z" fill="black"/>
<path d="M485.049 163.91C508.951 133.474 549.988 118.256 608.158 118.256C646.021 118.256 679.654 125.759 709.056 140.766C738.458 155.773 753.16 184.095 753.16 225.733V384.253C753.16 395.244 753.371 408.56 753.794 424.2C754.429 436.036 756.227 444.068 759.188 448.295C762.149 452.523 766.592 456.01 772.514 458.758V472.073H674.154C671.404 465.098 669.501 458.546 668.443 452.417C667.385 446.287 666.539 439.312 665.905 431.492C653.424 445.019 639.041 456.538 622.753 466.05C603.293 477.252 581.294 482.853 556.757 482.853C525.451 482.853 499.538 473.976 479.02 456.221C458.714 438.256 448.56 412.892 448.56 380.132C448.56 337.648 464.954 306.895 497.74 287.873C515.72 277.516 542.161 270.119 577.063 265.68L607.84 261.875C624.551 259.762 636.502 257.12 643.694 253.949C656.597 248.454 663.049 239.894 663.049 228.269C663.049 214.108 658.078 204.385 648.136 199.101C638.406 193.606 624.022 190.858 604.985 190.858C583.62 190.858 568.496 196.142 559.612 206.71C553.266 214.531 549.036 225.099 546.921 238.414H459.666C461.569 208.19 470.03 183.355 485.049 163.91ZM552.314 406.763C560.776 413.738 571.14 417.225 583.409 417.225C602.869 417.225 620.744 411.519 637.031 400.105C653.53 388.692 662.097 367.873 662.732 337.648V304.042C657.02 307.635 651.203 310.594 645.281 312.919C639.569 315.033 631.637 317.041 621.484 318.943L601.177 322.747C582.14 326.129 568.496 330.251 560.247 335.112C546.286 343.355 539.306 356.142 539.306 373.474C539.306 388.903 543.642 399.999 552.314 406.763Z" fill="black"/>
<path d="M924.408 1.90224V75.4556C919.331 74.8216 910.764 74.3988 898.707 74.1875C886.862 73.7648 878.612 76.4068 873.959 82.1135C869.516 87.6089 867.295 93.7383 867.295 100.502V129.67H926.629V193.395H867.295V472.073H777.185V193.395H726.736V129.67H776.233V107.477C776.233 70.4887 782.473 45.0198 794.953 31.07C808.068 10.3567 839.691 0 889.823 0C895.534 0 900.717 0.21136 905.37 0.634081C910.024 0.845441 916.37 1.26816 924.408 1.90224Z" fill="black"/>
<path d="M1203.22 370.62C1200.89 391.122 1190.21 411.941 1171.17 433.077C1141.56 466.684 1100.1 483.487 1046.79 483.487C1002.8 483.487 963.98 469.326 930.347 441.003C896.715 412.681 879.898 366.605 879.898 302.774C879.898 242.959 895.022 197.094 925.271 165.178C955.731 133.263 995.181 117.305 1043.62 117.305C1072.39 117.305 1098.3 122.695 1121.36 133.474C1144.41 144.253 1163.45 161.268 1178.47 184.518C1192.01 205.02 1200.78 228.798 1204.8 255.852C1207.13 271.704 1208.08 294.531 1207.66 324.332H970.961C972.23 358.996 983.123 383.302 1003.64 397.252C1016.12 405.918 1031.14 410.25 1048.7 410.25C1067.31 410.25 1082.44 404.966 1094.07 394.398C1100.42 388.692 1106.02 380.766 1110.89 370.62H1203.22ZM1113.74 264.729C1112.26 240.845 1104.96 222.774 1091.85 210.515C1078.95 198.045 1062.87 191.81 1043.62 191.81C1022.68 191.81 1006.39 198.362 994.757 211.466C983.335 224.57 976.143 242.325 973.182 264.729H1113.74Z" fill="black"/>
<path d="M1371.29 209.881C1334.91 209.881 1310.48 221.717 1298 245.389C1291.02 258.705 1287.53 279.207 1287.53 306.895V472.073H1196.47V126.499H1282.77V186.737C1296.73 163.699 1308.89 147.952 1319.26 139.498C1336.18 125.337 1358.18 118.256 1385.25 118.256C1386.95 118.256 1388.32 118.362 1389.38 118.573C1390.65 118.573 1393.29 118.679 1397.31 118.89V211.466C1391.6 210.832 1386.52 210.409 1382.08 210.198C1377.64 209.987 1374.04 209.881 1371.29 209.881Z" fill="black"/>
</svg>
