<svg width="1398" height="484" viewBox="0 0 1398 484" fill="none" xmlns="http://www.w3.org/2000/svg">
<path d="M300.244 472.583L245.972 220.581L191.064 472.583H97.1191L0 126.636H97.1191L151.074 374.829L200.903 126.636H292.627L345.312 375.781L399.268 126.636H493.53L393.237 472.583H300.244Z" fill="black"/>
<path d="M485.189 164.087C509.099 133.618 550.147 118.384 608.334 118.384C646.208 118.384 679.851 125.895 709.262 140.918C738.673 155.941 753.378 184.294 753.378 225.977V384.668C753.378 395.671 753.59 409.001 754.013 424.658C754.647 436.507 756.446 444.548 759.408 448.779C762.37 453.011 766.814 456.502 772.738 459.253V472.583H674.35C671.599 465.601 669.695 459.041 668.637 452.905C667.579 446.769 666.732 439.787 666.098 431.958C653.614 445.5 639.226 457.031 622.934 466.553C603.467 477.767 581.462 483.374 556.918 483.374C525.603 483.374 499.683 474.487 479.159 456.714C458.847 438.729 448.69 413.338 448.69 380.542C448.69 338.013 465.089 307.227 497.885 288.184C515.87 277.816 542.318 270.41 577.23 265.967L608.017 262.158C624.732 260.042 636.687 257.397 643.881 254.224C656.788 248.722 663.241 240.153 663.241 228.516C663.241 214.339 658.269 204.606 648.324 199.316C638.591 193.815 624.203 191.064 605.16 191.064C583.79 191.064 568.661 196.354 559.774 206.934C553.427 214.762 549.195 225.342 547.079 238.672H459.799C461.703 208.415 470.167 183.553 485.189 164.087ZM552.475 407.202C560.938 414.185 571.306 417.676 583.578 417.676C603.044 417.676 620.924 411.963 637.216 400.537C653.72 389.111 662.289 368.27 662.924 338.013V304.37C657.211 307.967 651.392 310.929 645.468 313.257C639.755 315.373 631.82 317.383 621.664 319.287L601.352 323.096C582.309 326.481 568.661 330.607 560.409 335.474C546.444 343.726 539.462 356.527 539.462 373.877C539.462 389.323 543.799 400.431 552.475 407.202Z" fill="black"/>
<path d="M924.676 1.9043V75.5371C919.598 74.9023 911.028 74.4792 898.968 74.2676C887.119 73.8444 878.867 76.4893 874.212 82.2021C869.769 87.7035 867.547 93.8395 867.547 100.61V129.81H926.897V193.604H867.547V472.583H777.41V193.604H726.946V129.81H776.458V107.593C776.458 70.5648 782.7 45.0684 795.184 31.1035C808.302 10.3678 839.935 0 890.081 0C895.794 0 900.978 0.211589 905.633 0.634766C910.288 0.846354 916.635 1.26953 924.676 1.9043Z" fill="black"/>
<path d="M1203.57 371.021C1201.24 391.545 1190.55 412.386 1171.51 433.545C1141.89 467.188 1100.42 484.009 1047.1 484.009C1003.09 484.009 964.26 469.832 930.617 441.479C896.975 413.127 880.153 367 880.153 303.101C880.153 243.221 895.282 197.306 925.539 165.356C956.008 133.407 995.469 117.432 1043.92 117.432C1072.7 117.432 1098.62 122.827 1121.68 133.618C1144.74 144.409 1163.79 161.442 1178.81 184.717C1192.35 205.241 1201.13 229.045 1205.15 256.128C1207.48 271.997 1208.43 294.849 1208.01 324.683H971.242C972.512 359.383 983.409 383.716 1003.93 397.681C1016.42 406.356 1031.44 410.693 1049 410.693C1067.62 410.693 1082.75 405.404 1094.39 394.824C1100.73 389.111 1106.34 381.177 1111.21 371.021H1203.57ZM1114.06 265.015C1112.58 241.105 1105.28 223.014 1092.17 210.742C1079.26 198.258 1063.18 192.017 1043.92 192.017C1022.98 192.017 1006.68 198.576 995.046 211.694C983.62 224.813 976.426 242.586 973.464 265.015H1114.06Z" fill="black"/>
<path d="M1371.69 210.107C1335.3 210.107 1310.86 221.956 1298.38 245.654C1291.39 258.984 1287.9 279.508 1287.9 307.227V472.583H1196.81V126.636H1283.14V186.938C1297.11 163.875 1309.27 148.112 1319.64 139.648C1336.57 125.472 1358.57 118.384 1385.66 118.384C1387.35 118.384 1388.72 118.49 1389.78 118.701C1391.05 118.701 1393.7 118.807 1397.72 119.019V211.694C1392 211.06 1386.92 210.636 1382.48 210.425C1378.04 210.213 1374.44 210.107 1371.69 210.107Z" fill="black"/>
</svg>
